<svg width="768" height="120" viewBox="0 0 768 120" fill="none" xmlns="http://www.w3.org/2000/svg">
<g opacity="0.5">
<path d="M24.13 22.6314L10.2366 10.174C9.94548 9.91296 9.48533 9.94791 9.24945 10.2647C6.43569 14.0166 7.19926 19.6403 11.1245 23.1599C15.0497 26.6794 20.722 26.8286 24.1471 23.6226C24.4351 23.3525 24.4211 22.8924 24.13 22.6314Z" fill="white"/>
<path d="M96.0614 107.662L109.955 120.119C110.246 120.38 110.706 120.345 110.942 120.028C113.756 116.276 112.992 110.653 109.067 107.133C105.142 103.614 99.4694 103.464 96.0444 106.67C95.7564 106.94 95.7703 107.401 96.0614 107.662Z" fill="white"/>
<path d="M111.737 46.8011L97.288 34.9925C96.9852 34.7451 96.5272 34.801 96.306 35.1283C93.6669 39.005 94.6871 44.5879 98.7693 47.9241C102.851 51.2603 108.525 51.1498 111.799 47.7904C112.075 47.5074 112.04 47.0485 111.737 46.8011Z" fill="white"/>
<path d="M18.0077 87.8813L31.1501 74.6338C31.4254 74.3562 31.4137 73.8949 31.1092 73.6433C27.504 70.644 21.8489 71.1229 18.1359 74.8657C14.4229 78.6084 13.9878 84.2659 17.017 87.8483C17.2722 88.1496 17.7324 88.1588 18.0077 87.8813Z" fill="white"/>
<path d="M15.2126 57.7304C12.4728 58.0213 9.77868 53.8019 9.19499 48.3059C8.6113 42.8099 10.3591 38.1187 13.0989 37.8277C15.8386 37.5368 18.5327 41.7563 19.1164 47.2522C19.7001 52.7482 17.9523 57.4394 15.2126 57.7304Z" fill="white"/>
<path d="M106.567 67.2066C109.306 66.9157 112.001 71.1351 112.584 76.6311C113.168 82.1271 111.42 86.8183 108.68 87.1093C105.941 87.4002 103.247 83.1808 102.663 77.6848C102.079 72.1888 103.827 67.4976 106.567 67.2066Z" fill="white"/>
<path d="M76.6911 15.2079C78.4728 16.4886 77.302 21.1648 74.0761 25.6526C70.8502 30.1403 66.7908 32.7402 65.0091 31.4595C63.2275 30.1788 64.3983 25.5026 67.6242 21.0148C70.8501 16.5271 74.9095 13.9272 76.6911 15.2079Z" fill="white"/>
<path d="M50.1797 91.4722C47.9984 91.2347 46.7151 86.588 47.3135 81.0937C47.9118 75.5993 50.1651 71.3377 52.3464 71.5753C54.5276 71.8128 55.8109 76.4595 55.2125 81.9538C54.6142 87.4482 52.3609 91.7097 50.1797 91.4722Z" fill="white"/>
<path fill-rule="evenodd" clip-rule="evenodd" d="M51.3372 44.5941C52.2499 45.8703 51.9544 47.6423 50.6772 48.552C47.801 50.6004 43.9305 51.2086 40.2645 50.0175C36.5985 48.8264 33.8253 46.0589 32.7024 42.712C32.2037 41.2254 33.006 39.618 34.4944 39.1219C35.9829 38.6257 37.5938 39.4286 38.0926 40.9152C38.6225 42.4945 40.0049 43.9669 42.0179 44.6209C44.0316 45.2752 46.0154 44.8967 47.372 43.9305C48.6492 43.0208 50.4245 43.3179 51.3372 44.5941Z" fill="white"/>
<path fill-rule="evenodd" clip-rule="evenodd" d="M72.1257 79.5171C71.213 78.2409 71.5085 76.4689 72.7857 75.5592C75.6619 73.5107 79.5324 72.9025 83.1984 74.0937C86.8644 75.2848 89.6376 78.0523 90.7605 81.3992C91.2592 82.8858 90.4569 84.4932 88.9685 84.9894C87.48 85.4855 85.8691 84.6826 85.3703 83.196C84.8404 81.6167 83.458 80.1443 81.4449 79.4902C79.4312 78.836 77.4475 79.2145 76.0909 80.1807C74.8137 81.0904 73.0384 80.7933 72.1257 79.5171Z" fill="white"/>
<path fill-rule="evenodd" clip-rule="evenodd" d="M100.515 12.412C100.264 10.8632 101.316 9.40692 102.864 9.15928C106.351 8.60162 110.089 9.77607 112.844 12.4717C115.599 15.1673 116.855 18.8787 116.374 22.376C116.16 23.9295 114.728 25.0131 113.174 24.7965C111.62 24.5798 110.533 23.1449 110.747 21.5914C110.973 19.9411 110.389 18.0079 108.876 16.5277C107.362 15.047 105.417 14.5049 103.772 14.768C102.224 15.0156 100.766 13.9608 100.515 12.412Z" fill="white"/>
<path fill-rule="evenodd" clip-rule="evenodd" d="M56.4392 111.232C57.5485 112.342 57.5472 114.138 56.4362 115.245C53.9343 117.737 50.2155 118.97 46.404 118.396C42.5925 117.821 39.4035 115.545 37.7477 112.427C37.0123 111.042 37.5406 109.325 38.9277 108.592C40.3148 107.859 42.0355 108.387 42.771 109.772C43.5523 111.243 45.1571 112.469 47.2501 112.785C49.3438 113.101 51.2388 112.402 52.4189 111.227C53.5299 110.12 55.3298 110.123 56.4392 111.232Z" fill="white"/>
<path d="M39.721 14.7413C38.9814 13.6386 39.2758 12.1451 40.3785 11.4054L52.0587 3.5712C53.1615 2.83159 54.6549 3.12593 55.3946 4.22864L57.7047 7.67283C58.4443 8.77554 58.1499 10.269 57.0472 11.0086L45.3669 18.8429C44.2642 19.5825 42.7707 19.2882 42.0311 18.1854L39.721 14.7413Z" fill="white"/>
<path d="M66.1124 100.13C65.8292 98.8331 66.6512 97.5519 67.9484 97.2687L81.6891 94.2688C82.9863 93.9856 84.2675 94.8076 84.5507 96.1048L85.4353 100.157C85.7185 101.454 84.8965 102.735 83.5992 103.018L69.8586 106.018C68.5614 106.301 67.2802 105.479 66.997 104.182L66.1124 100.13Z" fill="white"/>
<path d="M79.9582 61.5775C78.9673 62.4614 77.4476 62.3746 76.5637 61.3837L67.2017 50.8881C66.3179 49.8973 66.4047 48.3775 67.3955 47.4937L70.4904 44.7331C71.4812 43.8492 73.001 43.936 73.8848 44.9269L83.2468 55.4225C84.1307 56.4133 84.0439 57.9331 83.053 58.8169L79.9582 61.5775Z" fill="white"/>
<path d="M14.5944 98.1952C15.903 97.9706 17.146 98.8493 17.3706 100.158L19.7501 114.019C19.9747 115.328 19.096 116.571 17.7873 116.796L13.7 117.497C12.3913 117.722 11.1484 116.843 10.9237 115.535L8.54425 101.673C8.31961 100.364 9.19836 99.1215 10.507 98.8968L14.5944 98.1952Z" fill="white"/>
<path d="M148.13 22.6314L134.237 10.174C133.945 9.91296 133.485 9.94791 133.249 10.2647C130.436 14.0166 131.199 19.6403 135.124 23.1599C139.05 26.6794 144.722 26.8286 148.147 23.6226C148.435 23.3525 148.421 22.8924 148.13 22.6314Z" fill="white"/>
<path d="M220.061 107.662L233.955 120.119C234.246 120.38 234.706 120.345 234.942 120.028C237.756 116.276 236.992 110.653 233.067 107.133C229.142 103.614 223.469 103.464 220.044 106.67C219.756 106.94 219.77 107.401 220.061 107.662Z" fill="white"/>
<path d="M235.737 46.8011L221.288 34.9925C220.985 34.7451 220.527 34.801 220.306 35.1283C217.667 39.005 218.687 44.5879 222.769 47.9241C226.851 51.2603 232.525 51.1498 235.799 47.7904C236.075 47.5074 236.04 47.0485 235.737 46.8011Z" fill="white"/>
<path d="M142.008 87.8813L155.15 74.6338C155.425 74.3562 155.414 73.8949 155.109 73.6433C151.504 70.644 145.849 71.1229 142.136 74.8657C138.423 78.6084 137.988 84.2659 141.017 87.8483C141.272 88.1496 141.732 88.1588 142.008 87.8813Z" fill="white"/>
<path d="M139.213 57.7304C136.473 58.0213 133.779 53.8019 133.195 48.3059C132.611 42.8099 134.359 38.1187 137.099 37.8277C139.839 37.5368 142.533 41.7563 143.116 47.2522C143.7 52.7482 141.952 57.4394 139.213 57.7304Z" fill="white"/>
<path d="M230.567 67.2066C233.306 66.9157 236.001 71.1351 236.584 76.6311C237.168 82.1271 235.42 86.8183 232.68 87.1093C229.941 87.4002 227.247 83.1808 226.663 77.6848C226.079 72.1888 227.827 67.4976 230.567 67.2066Z" fill="white"/>
<path d="M200.691 15.2079C202.473 16.4886 201.302 21.1648 198.076 25.6526C194.85 30.1403 190.791 32.7402 189.009 31.4595C187.228 30.1788 188.398 25.5026 191.624 21.0148C194.85 16.5271 198.91 13.9272 200.691 15.2079Z" fill="white"/>
<path d="M174.18 91.4722C171.998 91.2347 170.715 86.588 171.313 81.0937C171.912 75.5993 174.165 71.3377 176.346 71.5753C178.528 71.8128 179.811 76.4595 179.213 81.9538C178.614 87.4482 176.361 91.7097 174.18 91.4722Z" fill="white"/>
<path fill-rule="evenodd" clip-rule="evenodd" d="M175.337 44.5941C176.25 45.8703 175.954 47.6423 174.677 48.552C171.801 50.6004 167.93 51.2086 164.265 50.0175C160.599 48.8264 157.825 46.0589 156.702 42.712C156.204 41.2254 157.006 39.618 158.494 39.1219C159.983 38.6257 161.594 39.4286 162.093 40.9152C162.622 42.4945 164.005 43.9669 166.018 44.6209C168.032 45.2752 170.015 44.8967 171.372 43.9305C172.649 43.0208 174.424 43.3179 175.337 44.5941Z" fill="white"/>
<path fill-rule="evenodd" clip-rule="evenodd" d="M196.126 79.5171C195.213 78.2409 195.509 76.4689 196.786 75.5592C199.662 73.5107 203.532 72.9025 207.198 74.0937C210.864 75.2848 213.638 78.0523 214.76 81.3992C215.259 82.8858 214.457 84.4932 212.968 84.9894C211.48 85.4855 209.869 84.6826 209.37 83.196C208.84 81.6167 207.458 80.1443 205.445 79.4902C203.431 78.836 201.448 79.2145 200.091 80.1807C198.814 81.0904 197.038 80.7933 196.126 79.5171Z" fill="white"/>
<path fill-rule="evenodd" clip-rule="evenodd" d="M224.515 12.412C224.264 10.8632 225.316 9.40692 226.864 9.15928C230.351 8.60162 234.089 9.77607 236.844 12.4717C239.599 15.1673 240.855 18.8787 240.374 22.376C240.16 23.9295 238.728 25.0131 237.174 24.7965C235.62 24.5798 234.533 23.1449 234.747 21.5914C234.973 19.9411 234.389 18.0079 232.876 16.5277C231.362 15.047 229.417 14.5049 227.772 14.768C226.224 15.0156 224.766 13.9608 224.515 12.412Z" fill="white"/>
<path fill-rule="evenodd" clip-rule="evenodd" d="M180.439 111.232C181.549 112.342 181.547 114.138 180.436 115.245C177.934 117.737 174.216 118.97 170.404 118.396C166.592 117.821 163.404 115.545 161.748 112.427C161.012 111.042 161.541 109.325 162.928 108.592C164.315 107.859 166.036 108.387 166.771 109.772C167.552 111.243 169.157 112.469 171.25 112.785C173.344 113.101 175.239 112.402 176.419 111.227C177.53 110.12 179.33 110.123 180.439 111.232Z" fill="white"/>
<path d="M163.721 14.7413C162.981 13.6386 163.276 12.1451 164.378 11.4054L176.059 3.5712C177.161 2.83159 178.655 3.12593 179.395 4.22864L181.705 7.67283C182.444 8.77554 182.15 10.269 181.047 11.0086L169.367 18.8429C168.264 19.5825 166.771 19.2882 166.031 18.1854L163.721 14.7413Z" fill="white"/>
<path d="M190.112 100.13C189.829 98.8331 190.651 97.5519 191.948 97.2687L205.689 94.2688C206.986 93.9856 208.267 94.8076 208.551 96.1048L209.435 100.157C209.718 101.454 208.896 102.735 207.599 103.018L193.859 106.018C192.561 106.301 191.28 105.479 190.997 104.182L190.112 100.13Z" fill="white"/>
<path d="M203.958 61.5775C202.967 62.4614 201.448 62.3746 200.564 61.3837L191.202 50.8881C190.318 49.8973 190.405 48.3775 191.396 47.4937L194.49 44.7331C195.481 43.8492 197.001 43.936 197.885 44.9269L207.247 55.4225C208.131 56.4133 208.044 57.9331 207.053 58.8169L203.958 61.5775Z" fill="white"/>
<path d="M138.594 98.1952C139.903 97.9706 141.146 98.8493 141.371 100.158L143.75 114.019C143.975 115.328 143.096 116.571 141.787 116.796L137.7 117.497C136.391 117.722 135.148 116.843 134.924 115.535L132.544 101.673C132.32 100.364 133.198 99.1215 134.507 98.8968L138.594 98.1952Z" fill="white"/>
<path d="M272.13 22.6314L258.237 10.174C257.945 9.91296 257.485 9.94791 257.249 10.2647C254.436 14.0166 255.199 19.6403 259.124 23.1599C263.05 26.6794 268.722 26.8286 272.147 23.6226C272.435 23.3525 272.421 22.8924 272.13 22.6314Z" fill="white"/>
<path d="M344.061 107.662L357.955 120.119C358.246 120.38 358.706 120.345 358.942 120.028C361.756 116.276 360.992 110.653 357.067 107.133C353.142 103.614 347.469 103.464 344.044 106.67C343.756 106.94 343.77 107.401 344.061 107.662Z" fill="white"/>
<path d="M359.737 46.8011L345.288 34.9925C344.985 34.7451 344.527 34.801 344.306 35.1283C341.667 39.005 342.687 44.5879 346.769 47.9241C350.851 51.2603 356.525 51.1498 359.799 47.7904C360.075 47.5074 360.04 47.0485 359.737 46.8011Z" fill="white"/>
<path d="M266.008 87.8813L279.15 74.6338C279.425 74.3562 279.414 73.8949 279.109 73.6433C275.504 70.644 269.849 71.1229 266.136 74.8657C262.423 78.6084 261.988 84.2659 265.017 87.8483C265.272 88.1496 265.732 88.1588 266.008 87.8813Z" fill="white"/>
<path d="M263.213 57.7304C260.473 58.0213 257.779 53.8019 257.195 48.3059C256.611 42.8099 258.359 38.1187 261.099 37.8277C263.839 37.5368 266.533 41.7563 267.116 47.2522C267.7 52.7482 265.952 57.4394 263.213 57.7304Z" fill="white"/>
<path d="M354.567 67.2066C357.306 66.9157 360.001 71.1351 360.584 76.6311C361.168 82.1271 359.42 86.8183 356.68 87.1093C353.941 87.4002 351.247 83.1808 350.663 77.6848C350.079 72.1888 351.827 67.4976 354.567 67.2066Z" fill="white"/>
<path d="M324.691 15.2079C326.473 16.4886 325.302 21.1648 322.076 25.6526C318.85 30.1403 314.791 32.7402 313.009 31.4595C311.228 30.1788 312.398 25.5026 315.624 21.0148C318.85 16.5271 322.91 13.9272 324.691 15.2079Z" fill="white"/>
<path d="M298.18 91.4722C295.998 91.2347 294.715 86.588 295.313 81.0937C295.912 75.5993 298.165 71.3377 300.346 71.5753C302.528 71.8128 303.811 76.4595 303.213 81.9538C302.614 87.4482 300.361 91.7097 298.18 91.4722Z" fill="white"/>
<path fill-rule="evenodd" clip-rule="evenodd" d="M299.337 44.5941C300.25 45.8703 299.954 47.6423 298.677 48.552C295.801 50.6004 291.93 51.2086 288.265 50.0175C284.599 48.8264 281.825 46.0589 280.702 42.712C280.204 41.2254 281.006 39.618 282.494 39.1219C283.983 38.6257 285.594 39.4286 286.093 40.9152C286.622 42.4945 288.005 43.9669 290.018 44.6209C292.032 45.2752 294.015 44.8967 295.372 43.9305C296.649 43.0208 298.424 43.3179 299.337 44.5941Z" fill="white"/>
<path fill-rule="evenodd" clip-rule="evenodd" d="M320.126 79.5171C319.213 78.2409 319.509 76.4689 320.786 75.5592C323.662 73.5107 327.532 72.9025 331.198 74.0937C334.864 75.2848 337.638 78.0523 338.76 81.3992C339.259 82.8858 338.457 84.4932 336.968 84.9894C335.48 85.4855 333.869 84.6826 333.37 83.196C332.84 81.6167 331.458 80.1443 329.445 79.4902C327.431 78.836 325.448 79.2145 324.091 80.1807C322.814 81.0904 321.038 80.7933 320.126 79.5171Z" fill="white"/>
<path fill-rule="evenodd" clip-rule="evenodd" d="M348.515 12.412C348.264 10.8632 349.316 9.40692 350.864 9.15928C354.351 8.60162 358.089 9.77607 360.844 12.4717C363.599 15.1673 364.855 18.8787 364.374 22.376C364.16 23.9295 362.728 25.0131 361.174 24.7965C359.62 24.5798 358.533 23.1449 358.747 21.5914C358.973 19.9411 358.389 18.0079 356.876 16.5277C355.362 15.047 353.417 14.5049 351.772 14.768C350.224 15.0156 348.766 13.9608 348.515 12.412Z" fill="white"/>
<path fill-rule="evenodd" clip-rule="evenodd" d="M304.439 111.232C305.549 112.342 305.547 114.138 304.436 115.245C301.934 117.737 298.216 118.97 294.404 118.396C290.592 117.821 287.404 115.545 285.748 112.427C285.012 111.042 285.541 109.325 286.928 108.592C288.315 107.859 290.036 108.387 290.771 109.772C291.552 111.243 293.157 112.469 295.25 112.785C297.344 113.101 299.239 112.402 300.419 111.227C301.53 110.12 303.33 110.123 304.439 111.232Z" fill="white"/>
<path d="M287.721 14.7413C286.981 13.6386 287.276 12.1451 288.378 11.4054L300.059 3.5712C301.161 2.83159 302.655 3.12593 303.395 4.22864L305.705 7.67283C306.444 8.77554 306.15 10.269 305.047 11.0086L293.367 18.8429C292.264 19.5825 290.771 19.2882 290.031 18.1854L287.721 14.7413Z" fill="white"/>
<path d="M314.112 100.13C313.829 98.8331 314.651 97.5519 315.948 97.2687L329.689 94.2688C330.986 93.9856 332.267 94.8076 332.551 96.1048L333.435 100.157C333.718 101.454 332.896 102.735 331.599 103.018L317.859 106.018C316.561 106.301 315.28 105.479 314.997 104.182L314.112 100.13Z" fill="white"/>
<path d="M327.958 61.5775C326.967 62.4614 325.448 62.3746 324.564 61.3837L315.202 50.8881C314.318 49.8973 314.405 48.3775 315.396 47.4937L318.49 44.7331C319.481 43.8492 321.001 43.936 321.885 44.9269L331.247 55.4225C332.131 56.4133 332.044 57.9331 331.053 58.8169L327.958 61.5775Z" fill="white"/>
<path d="M262.594 98.1952C263.903 97.9706 265.146 98.8493 265.371 100.158L267.75 114.019C267.975 115.328 267.096 116.571 265.787 116.796L261.7 117.497C260.391 117.722 259.148 116.843 258.924 115.535L256.544 101.673C256.32 100.364 257.198 99.1215 258.507 98.8968L262.594 98.1952Z" fill="white"/>
<path d="M396.13 22.6314L382.237 10.174C381.945 9.91296 381.485 9.94791 381.249 10.2647C378.436 14.0166 379.199 19.6403 383.124 23.1599C387.05 26.6794 392.722 26.8286 396.147 23.6226C396.435 23.3525 396.421 22.8924 396.13 22.6314Z" fill="white"/>
<path d="M468.061 107.662L481.955 120.119C482.246 120.38 482.706 120.345 482.942 120.028C485.756 116.276 484.992 110.653 481.067 107.133C477.142 103.614 471.469 103.464 468.044 106.67C467.756 106.94 467.77 107.401 468.061 107.662Z" fill="white"/>
<path d="M483.737 46.8011L469.288 34.9925C468.985 34.7451 468.527 34.801 468.306 35.1283C465.667 39.005 466.687 44.5879 470.769 47.9241C474.851 51.2603 480.525 51.1498 483.799 47.7904C484.075 47.5074 484.04 47.0485 483.737 46.8011Z" fill="white"/>
<path d="M390.008 87.8813L403.15 74.6338C403.425 74.3562 403.414 73.8949 403.109 73.6433C399.504 70.644 393.849 71.1229 390.136 74.8657C386.423 78.6084 385.988 84.2659 389.017 87.8483C389.272 88.1496 389.732 88.1588 390.008 87.8813Z" fill="white"/>
<path d="M387.213 57.7304C384.473 58.0213 381.779 53.8019 381.195 48.3059C380.611 42.8099 382.359 38.1187 385.099 37.8277C387.839 37.5368 390.533 41.7563 391.116 47.2522C391.7 52.7482 389.952 57.4394 387.213 57.7304Z" fill="white"/>
<path d="M478.567 67.2066C481.306 66.9157 484.001 71.1351 484.584 76.6311C485.168 82.1271 483.42 86.8183 480.68 87.1093C477.941 87.4002 475.247 83.1808 474.663 77.6848C474.079 72.1888 475.827 67.4976 478.567 67.2066Z" fill="white"/>
<path d="M448.691 15.2079C450.473 16.4886 449.302 21.1648 446.076 25.6526C442.85 30.1403 438.791 32.7402 437.009 31.4595C435.228 30.1788 436.398 25.5026 439.624 21.0148C442.85 16.5271 446.91 13.9272 448.691 15.2079Z" fill="white"/>
<path d="M422.18 91.4722C419.998 91.2347 418.715 86.588 419.313 81.0937C419.912 75.5993 422.165 71.3377 424.346 71.5753C426.528 71.8128 427.811 76.4595 427.213 81.9538C426.614 87.4482 424.361 91.7097 422.18 91.4722Z" fill="white"/>
<path fill-rule="evenodd" clip-rule="evenodd" d="M423.337 44.5941C424.25 45.8703 423.954 47.6423 422.677 48.552C419.801 50.6004 415.93 51.2086 412.265 50.0175C408.599 48.8264 405.825 46.0589 404.702 42.712C404.204 41.2254 405.006 39.618 406.494 39.1219C407.983 38.6257 409.594 39.4286 410.093 40.9152C410.622 42.4945 412.005 43.9669 414.018 44.6209C416.032 45.2752 418.015 44.8967 419.372 43.9305C420.649 43.0208 422.424 43.3179 423.337 44.5941Z" fill="white"/>
<path fill-rule="evenodd" clip-rule="evenodd" d="M444.126 79.5171C443.213 78.2409 443.509 76.4689 444.786 75.5592C447.662 73.5107 451.532 72.9025 455.198 74.0937C458.864 75.2848 461.638 78.0523 462.76 81.3992C463.259 82.8858 462.457 84.4932 460.968 84.9894C459.48 85.4855 457.869 84.6826 457.37 83.196C456.84 81.6167 455.458 80.1443 453.445 79.4902C451.431 78.836 449.448 79.2145 448.091 80.1807C446.814 81.0904 445.038 80.7933 444.126 79.5171Z" fill="white"/>
<path fill-rule="evenodd" clip-rule="evenodd" d="M472.515 12.412C472.264 10.8632 473.316 9.40692 474.864 9.15928C478.351 8.60162 482.089 9.77607 484.844 12.4717C487.599 15.1673 488.855 18.8787 488.374 22.376C488.16 23.9295 486.728 25.0131 485.174 24.7965C483.62 24.5798 482.533 23.1449 482.747 21.5914C482.973 19.9411 482.389 18.0079 480.876 16.5277C479.362 15.047 477.417 14.5049 475.772 14.768C474.224 15.0156 472.766 13.9608 472.515 12.412Z" fill="white"/>
<path fill-rule="evenodd" clip-rule="evenodd" d="M428.439 111.232C429.549 112.342 429.547 114.138 428.436 115.245C425.934 117.737 422.216 118.97 418.404 118.396C414.592 117.821 411.404 115.545 409.748 112.427C409.012 111.042 409.541 109.325 410.928 108.592C412.315 107.859 414.036 108.387 414.771 109.772C415.552 111.243 417.157 112.469 419.25 112.785C421.344 113.101 423.239 112.402 424.419 111.227C425.53 110.12 427.33 110.123 428.439 111.232Z" fill="white"/>
<path d="M411.721 14.7413C410.981 13.6386 411.276 12.1451 412.378 11.4054L424.059 3.5712C425.161 2.83159 426.655 3.12593 427.395 4.22864L429.705 7.67283C430.444 8.77554 430.15 10.269 429.047 11.0086L417.367 18.8429C416.264 19.5825 414.771 19.2882 414.031 18.1854L411.721 14.7413Z" fill="white"/>
<path d="M438.112 100.13C437.829 98.8331 438.651 97.5519 439.948 97.2687L453.689 94.2688C454.986 93.9856 456.267 94.8076 456.551 96.1048L457.435 100.157C457.718 101.454 456.896 102.735 455.599 103.018L441.859 106.018C440.561 106.301 439.28 105.479 438.997 104.182L438.112 100.13Z" fill="white"/>
<path d="M451.958 61.5775C450.967 62.4614 449.448 62.3746 448.564 61.3837L439.202 50.8881C438.318 49.8973 438.405 48.3775 439.396 47.4937L442.49 44.7331C443.481 43.8492 445.001 43.936 445.885 44.9269L455.247 55.4225C456.131 56.4133 456.044 57.9331 455.053 58.8169L451.958 61.5775Z" fill="white"/>
<path d="M386.594 98.1952C387.903 97.9706 389.146 98.8493 389.371 100.158L391.75 114.019C391.975 115.328 391.096 116.571 389.787 116.796L385.7 117.497C384.391 117.722 383.148 116.843 382.924 115.535L380.544 101.673C380.32 100.364 381.198 99.1215 382.507 98.8968L386.594 98.1952Z" fill="white"/>
<path d="M520.13 22.6314L506.237 10.174C505.945 9.91296 505.485 9.94791 505.249 10.2647C502.436 14.0166 503.199 19.6403 507.124 23.1599C511.05 26.6794 516.722 26.8286 520.147 23.6226C520.435 23.3525 520.421 22.8924 520.13 22.6314Z" fill="white"/>
<path d="M592.061 107.662L605.955 120.119C606.246 120.38 606.706 120.345 606.942 120.028C609.756 116.276 608.992 110.653 605.067 107.133C601.142 103.614 595.469 103.464 592.044 106.67C591.756 106.94 591.77 107.401 592.061 107.662Z" fill="white"/>
<path d="M607.737 46.8011L593.288 34.9925C592.985 34.7451 592.527 34.801 592.306 35.1283C589.667 39.005 590.687 44.5879 594.769 47.9241C598.851 51.2603 604.525 51.1498 607.799 47.7904C608.075 47.5074 608.04 47.0485 607.737 46.8011Z" fill="white"/>
<path d="M514.008 87.8813L527.15 74.6338C527.425 74.3562 527.414 73.8949 527.109 73.6433C523.504 70.644 517.849 71.1229 514.136 74.8657C510.423 78.6084 509.988 84.2659 513.017 87.8483C513.272 88.1496 513.732 88.1588 514.008 87.8813Z" fill="white"/>
<path d="M511.213 57.7304C508.473 58.0213 505.779 53.8019 505.195 48.3059C504.611 42.8099 506.359 38.1187 509.099 37.8277C511.839 37.5368 514.533 41.7563 515.116 47.2522C515.7 52.7482 513.952 57.4394 511.213 57.7304Z" fill="white"/>
<path d="M602.567 67.2066C605.306 66.9157 608.001 71.1351 608.584 76.6311C609.168 82.1271 607.42 86.8183 604.68 87.1093C601.941 87.4002 599.247 83.1808 598.663 77.6848C598.079 72.1888 599.827 67.4976 602.567 67.2066Z" fill="white"/>
<path d="M572.691 15.2079C574.473 16.4886 573.302 21.1648 570.076 25.6526C566.85 30.1403 562.791 32.7402 561.009 31.4595C559.228 30.1788 560.398 25.5026 563.624 21.0148C566.85 16.5271 570.91 13.9272 572.691 15.2079Z" fill="white"/>
<path d="M546.18 91.4722C543.998 91.2347 542.715 86.588 543.313 81.0937C543.912 75.5993 546.165 71.3377 548.346 71.5753C550.528 71.8128 551.811 76.4595 551.213 81.9538C550.614 87.4482 548.361 91.7097 546.18 91.4722Z" fill="white"/>
<path fill-rule="evenodd" clip-rule="evenodd" d="M547.337 44.5941C548.25 45.8703 547.954 47.6423 546.677 48.552C543.801 50.6004 539.93 51.2086 536.265 50.0175C532.599 48.8264 529.825 46.0589 528.702 42.712C528.204 41.2254 529.006 39.618 530.494 39.1219C531.983 38.6257 533.594 39.4286 534.093 40.9152C534.622 42.4945 536.005 43.9669 538.018 44.6209C540.032 45.2752 542.015 44.8967 543.372 43.9305C544.649 43.0208 546.424 43.3179 547.337 44.5941Z" fill="white"/>
<path fill-rule="evenodd" clip-rule="evenodd" d="M568.126 79.5171C567.213 78.2409 567.509 76.4689 568.786 75.5592C571.662 73.5107 575.532 72.9025 579.198 74.0937C582.864 75.2848 585.638 78.0523 586.76 81.3992C587.259 82.8858 586.457 84.4932 584.968 84.9894C583.48 85.4855 581.869 84.6826 581.37 83.196C580.84 81.6167 579.458 80.1443 577.445 79.4902C575.431 78.836 573.448 79.2145 572.091 80.1807C570.814 81.0904 569.038 80.7933 568.126 79.5171Z" fill="white"/>
<path fill-rule="evenodd" clip-rule="evenodd" d="M596.515 12.412C596.264 10.8632 597.316 9.40692 598.864 9.15928C602.351 8.60162 606.089 9.77607 608.844 12.4717C611.599 15.1673 612.855 18.8787 612.374 22.376C612.16 23.9295 610.728 25.0131 609.174 24.7965C607.62 24.5798 606.533 23.1449 606.747 21.5914C606.973 19.9411 606.389 18.0079 604.876 16.5277C603.362 15.047 601.417 14.5049 599.772 14.768C598.224 15.0156 596.766 13.9608 596.515 12.412Z" fill="white"/>
<path fill-rule="evenodd" clip-rule="evenodd" d="M552.439 111.232C553.549 112.342 553.547 114.138 552.436 115.245C549.934 117.737 546.216 118.97 542.404 118.396C538.592 117.821 535.404 115.545 533.748 112.427C533.012 111.042 533.541 109.325 534.928 108.592C536.315 107.859 538.036 108.387 538.771 109.772C539.552 111.243 541.157 112.469 543.25 112.785C545.344 113.101 547.239 112.402 548.419 111.227C549.53 110.12 551.33 110.123 552.439 111.232Z" fill="white"/>
<path d="M535.721 14.7413C534.981 13.6386 535.276 12.1451 536.378 11.4054L548.059 3.5712C549.161 2.83159 550.655 3.12593 551.395 4.22864L553.705 7.67283C554.444 8.77554 554.15 10.269 553.047 11.0086L541.367 18.8429C540.264 19.5825 538.771 19.2882 538.031 18.1854L535.721 14.7413Z" fill="white"/>
<path d="M562.112 100.13C561.829 98.8331 562.651 97.5519 563.948 97.2687L577.689 94.2688C578.986 93.9856 580.267 94.8076 580.551 96.1048L581.435 100.157C581.718 101.454 580.896 102.735 579.599 103.018L565.859 106.018C564.561 106.301 563.28 105.479 562.997 104.182L562.112 100.13Z" fill="white"/>
<path d="M575.958 61.5775C574.967 62.4614 573.448 62.3746 572.564 61.3837L563.202 50.8881C562.318 49.8973 562.405 48.3775 563.396 47.4937L566.49 44.7331C567.481 43.8492 569.001 43.936 569.885 44.9269L579.247 55.4225C580.131 56.4133 580.044 57.9331 579.053 58.8169L575.958 61.5775Z" fill="white"/>
<path d="M510.594 98.1952C511.903 97.9706 513.146 98.8493 513.371 100.158L515.75 114.019C515.975 115.328 515.096 116.571 513.787 116.796L509.7 117.497C508.391 117.722 507.148 116.843 506.924 115.535L504.544 101.673C504.32 100.364 505.198 99.1215 506.507 98.8968L510.594 98.1952Z" fill="white"/>
<path d="M644.13 22.6314L630.237 10.174C629.945 9.91296 629.485 9.94791 629.249 10.2647C626.436 14.0166 627.199 19.6403 631.124 23.1599C635.05 26.6794 640.722 26.8286 644.147 23.6226C644.435 23.3525 644.421 22.8924 644.13 22.6314Z" fill="white"/>
<path d="M716.061 107.662L729.955 120.119C730.246 120.38 730.706 120.345 730.942 120.028C733.756 116.276 732.992 110.653 729.067 107.133C725.142 103.614 719.469 103.464 716.044 106.67C715.756 106.94 715.77 107.401 716.061 107.662Z" fill="white"/>
<path d="M731.737 46.8011L717.288 34.9925C716.985 34.7451 716.527 34.801 716.306 35.1283C713.667 39.005 714.687 44.5879 718.769 47.9241C722.851 51.2603 728.525 51.1498 731.799 47.7904C732.075 47.5074 732.04 47.0485 731.737 46.8011Z" fill="white"/>
<path d="M638.008 87.8813L651.15 74.6338C651.425 74.3562 651.414 73.8949 651.109 73.6433C647.504 70.644 641.849 71.1229 638.136 74.8657C634.423 78.6084 633.988 84.2659 637.017 87.8483C637.272 88.1496 637.732 88.1588 638.008 87.8813Z" fill="white"/>
<path d="M635.213 57.7304C632.473 58.0213 629.779 53.8019 629.195 48.3059C628.611 42.8099 630.359 38.1187 633.099 37.8277C635.839 37.5368 638.533 41.7563 639.116 47.2522C639.7 52.7482 637.952 57.4394 635.213 57.7304Z" fill="white"/>
<path d="M726.567 67.2066C729.306 66.9157 732.001 71.1351 732.584 76.6311C733.168 82.1271 731.42 86.8183 728.68 87.1093C725.941 87.4002 723.247 83.1808 722.663 77.6848C722.079 72.1888 723.827 67.4976 726.567 67.2066Z" fill="white"/>
<path d="M696.691 15.2079C698.473 16.4886 697.302 21.1648 694.076 25.6526C690.85 30.1403 686.791 32.7402 685.009 31.4595C683.228 30.1788 684.398 25.5026 687.624 21.0148C690.85 16.5271 694.91 13.9272 696.691 15.2079Z" fill="white"/>
<path d="M670.18 91.4722C667.998 91.2347 666.715 86.588 667.313 81.0937C667.912 75.5993 670.165 71.3377 672.346 71.5753C674.528 71.8128 675.811 76.4595 675.213 81.9538C674.614 87.4482 672.361 91.7097 670.18 91.4722Z" fill="white"/>
<path fill-rule="evenodd" clip-rule="evenodd" d="M671.337 44.5941C672.25 45.8703 671.954 47.6423 670.677 48.552C667.801 50.6004 663.93 51.2086 660.265 50.0175C656.599 48.8264 653.825 46.0589 652.702 42.712C652.204 41.2254 653.006 39.618 654.494 39.1219C655.983 38.6257 657.594 39.4286 658.093 40.9152C658.622 42.4945 660.005 43.9669 662.018 44.6209C664.032 45.2752 666.015 44.8967 667.372 43.9305C668.649 43.0208 670.424 43.3179 671.337 44.5941Z" fill="white"/>
<path fill-rule="evenodd" clip-rule="evenodd" d="M692.126 79.5171C691.213 78.2409 691.509 76.4689 692.786 75.5592C695.662 73.5107 699.532 72.9025 703.198 74.0937C706.864 75.2848 709.638 78.0523 710.76 81.3992C711.259 82.8858 710.457 84.4932 708.968 84.9894C707.48 85.4855 705.869 84.6826 705.37 83.196C704.84 81.6167 703.458 80.1443 701.445 79.4902C699.431 78.836 697.448 79.2145 696.091 80.1807C694.814 81.0904 693.038 80.7933 692.126 79.5171Z" fill="white"/>
<path fill-rule="evenodd" clip-rule="evenodd" d="M720.515 12.412C720.264 10.8632 721.316 9.40692 722.864 9.15928C726.351 8.60162 730.089 9.77607 732.844 12.4717C735.599 15.1673 736.855 18.8787 736.374 22.376C736.16 23.9295 734.728 25.0131 733.174 24.7965C731.62 24.5798 730.533 23.1449 730.747 21.5914C730.973 19.9411 730.389 18.0079 728.876 16.5277C727.362 15.047 725.417 14.5049 723.772 14.768C722.224 15.0156 720.766 13.9608 720.515 12.412Z" fill="white"/>
<path fill-rule="evenodd" clip-rule="evenodd" d="M676.439 111.232C677.549 112.342 677.547 114.138 676.436 115.245C673.934 117.737 670.216 118.97 666.404 118.396C662.592 117.821 659.404 115.545 657.748 112.427C657.012 111.042 657.541 109.325 658.928 108.592C660.315 107.859 662.036 108.387 662.771 109.772C663.552 111.243 665.157 112.469 667.25 112.785C669.344 113.101 671.239 112.402 672.419 111.227C673.53 110.12 675.33 110.123 676.439 111.232Z" fill="white"/>
<path d="M659.721 14.7413C658.981 13.6386 659.276 12.1451 660.378 11.4054L672.059 3.5712C673.161 2.83159 674.655 3.12593 675.395 4.22864L677.705 7.67283C678.444 8.77554 678.15 10.269 677.047 11.0086L665.367 18.8429C664.264 19.5825 662.771 19.2882 662.031 18.1854L659.721 14.7413Z" fill="white"/>
<path d="M686.112 100.13C685.829 98.8331 686.651 97.5519 687.948 97.2687L701.689 94.2688C702.986 93.9856 704.267 94.8076 704.551 96.1048L705.435 100.157C705.718 101.454 704.896 102.735 703.599 103.018L689.859 106.018C688.561 106.301 687.28 105.479 686.997 104.182L686.112 100.13Z" fill="white"/>
<path d="M699.958 61.5775C698.967 62.4614 697.448 62.3746 696.564 61.3837L687.202 50.8881C686.318 49.8973 686.405 48.3775 687.396 47.4937L690.49 44.7331C691.481 43.8492 693.001 43.936 693.885 44.9269L703.247 55.4225C704.131 56.4133 704.044 57.9331 703.053 58.8169L699.958 61.5775Z" fill="white"/>
<path d="M634.594 98.1952C635.903 97.9706 637.146 98.8493 637.371 100.158L639.75 114.019C639.975 115.328 639.096 116.571 637.787 116.796L633.7 117.497C632.391 117.722 631.148 116.843 630.924 115.535L628.544 101.673C628.32 100.364 629.198 99.1215 630.507 98.8968L634.594 98.1952Z" fill="white"/>
<path d="M768.13 22.6314L754.237 10.174C753.945 9.91296 753.485 9.94791 753.249 10.2647C750.436 14.0166 751.199 19.6403 755.124 23.1599C759.05 26.6794 764.722 26.8286 768.147 23.6226C768.435 23.3525 768.421 22.8924 768.13 22.6314Z" fill="white"/>
<path d="M762.008 87.8813L775.15 74.6338C775.425 74.3562 775.414 73.8949 775.109 73.6433C771.504 70.644 765.849 71.1229 762.136 74.8657C758.423 78.6084 757.988 84.2659 761.017 87.8483C761.272 88.1496 761.732 88.1588 762.008 87.8813Z" fill="white"/>
<path d="M759.213 57.7304C756.473 58.0213 753.779 53.8019 753.195 48.3059C752.611 42.8099 754.359 38.1187 757.099 37.8277C759.839 37.5368 762.533 41.7563 763.116 47.2522C763.7 52.7482 761.952 57.4394 759.213 57.7304Z" fill="white"/>
<path d="M758.594 98.1952C759.903 97.9706 761.146 98.8493 761.371 100.158L763.75 114.019C763.975 115.328 763.096 116.571 761.787 116.796L757.7 117.497C756.391 117.722 755.148 116.843 754.924 115.535L752.544 101.673C752.32 100.364 753.198 99.1215 754.507 98.8968L758.594 98.1952Z" fill="white"/>
</g>
</svg>
